# xmcd CD database file
#
# Track frame offsets:
#	150
#	17402
#	36557
#	53277
#	71707
#	88810
#	107630
#	130862
#	144660
#	165310
#	179782
#	196520
#	212255
#	237727
#	255047
#	273622
#
# Disc length: 3867 seconds
#
# Revision: 0
# Processed by: cddbd v1.4PL0 Copyright (c) Steve Scherf et al.
# Submitted via: CDex 1.40Beta9
#
DISCID=da0f1910
DTITLE=Hasse Andersson - Country Classics Disc 3 (Eva-Lena)
DYEAR=1900
DGENRE=Country
TTITLE0=EvaLena---
TTITLE1=Jennys sång
TTITLE2=Annat var det förr
TTITLE3=Sloop John B
TTITLE4=Ett semesterminne
TTITLE5=Marknadsvarité
TTITLE6=Sven Elvis
TTITLE7=Här é ja'
TTITLE8=Höstens sista blomma
TTITLE9=Honolulu
TTITLE10=En rynkig gammal fru
TTITLE11=Nattradion
TTITLE12=Berit
TTITLE13=Du ska inte kasta sten
TTITLE14=Svart eller vit
TTITLE15=Sommardansen
EXTD=ID3G: 2
EXTT0=
EXTT1=
EXTT2=
EXTT3=
EXTT4=
EXTT5=
EXTT6=
EXTT7=
EXTT8=
EXTT9=
EXTT10=
EXTT11=
EXTT12=
EXTT13=
EXTT14=
EXTT15=
PLAYORDER=
